PathFileType	4	(X/Y/Z)	D:\Research_projects\MuscleProsody\BulkSports2Dtrack\RetrackedSports2D\p1_sample60_cam1\p1_sample60_cam1_Sports2D\p1_sample60_cam1_Sports2D_m_person00.trc
DataRate	CameraRate	NumFrames	NumMarkers	Units	OrigDataRate	OrigDataStartFrame	OrigNumFrames
60	60	6	22	m	60	0	780
Frame#	Time	Hip			RHip			RKnee			RAnkle			RBigToe			RSmallToe			RHeel			LHip			LKnee			LAnkle			LBigToe			LSmallToe			LHeel			Neck			Head			Nose			RShoulder			RElbow			RWrist			LShoulder			LElbow			LWrist		
		X1	Y1	Z1	X2	Y2	Z2	X3	Y3	Z3	X4	Y4	Z4	X5	Y5	Z5	X6	Y6	Z6	X7	Y7	Z7	X8	Y8	Z8	X9	Y9	Z9	X10	Y10	Z10	X11	Y11	Z11	X12	Y12	Z12	X13	Y13	Z13	X14	Y14	Z14	X15	Y15	Z15	X16	Y16	Z16	X17	Y17	Z17	X18	Y18	Z18	X19	Y19	Z19	X20	Y20	Z20	X21	Y21	Z21	X22	Y22	Z22
0	0.0	1.8276930764326593	0.6621133652762285	0.0301	1.7132707029771705	0.6845037057188157	0.0301	1.4748165698628002	0.41964995852370784	0.129	1.2658555120053139	0.18322274576415976	0.023	1.3045954320836126	0.015435942848727398	0.2179	1.2388657522994955	0.04810008794135588	0.1804	1.216975934821213	0.17303547412164694	-0.0119	1.8721595609045012	0.589575514400682	0.0301	1.6301716428577975	0.35306433270848986	0.129	1.4013802567267666	0.16766373136920287	0.023	1.4142396014899583	0.008866201753166835	0.2179	1.4539274090253866	0.01813476140285508	0.1804	1.3517609023004655	0.1448384052652972	-0.0119	2.2346092479347863	1.1745005122566305	0.0008	2.474247705409944	1.3531951179210249	0.0655	2.44069597714721	1.2090583314819272	0.1076	2.0046120081746364	1.2068705310848595	-0.01275	1.7512437283053837	0.9771676678584702	0.0702	1.6351472300284933	0.744458037497807	0.1076	2.2836589590074636	1.02029107166356	-0.01275	2.128815087404526	0.7908423400408978	0.0702	2.026126739510421	0.5763720626215871	0.1076
1	0.016666666666666666	1.8271651281496586	0.6617320220972424	0.0301	1.7129858010444283	0.6857068936532934	0.0301	1.4741697968276093	0.4197919048585436	0.129	1.2662329653006845	0.1829822454830259	0.023	1.3063870261435866	0.012861860053647887	0.2179	1.2401409958771026	0.04576266060986612	0.1804	1.2159206853917361	0.17269884216015197	-0.0119	1.8724722788390353	0.5901018796063578	0.0301	1.6285845383978812	0.35237725666924785	0.129	1.4009623295729805	0.16755186308131964	0.023	1.414058306097951	0.011065726767345343	0.2179	1.453248347176545	0.020871999298661868	0.1804	1.3528227556481482	0.1443034978716889	-0.0119	2.235643268805225	1.1736810865123015	0.0008	2.474671340162949	1.3536753324678268	0.0655	2.4383727574312046	1.2104308447611216	0.1076	2.0053272088236107	1.2060894765623877	-0.01275	1.7527167572084255	0.9787206746131037	0.0702	1.6343836348514023	0.744526789611194	0.1076	2.284274826840305	1.020113929703674	-0.01275	2.1292752648292588	0.7903195170060828	0.0702	2.029932417293006	0.5763494185337109	0.1076
2	0.03333333333333333	1.8267007613991166	0.6613645543985233	0.0301	1.7127538592572533	0.686834305559047	0.0301	1.4735732245483555	0.41990303974748555	0.129	1.2665568778405667	0.18274138363056192	0.023	1.308020258426221	0.010465169768327181	0.2179	1.2413106915790746	0.04361649022983384	0.1804	1.2149015957423321	0.17234412853519948	-0.0119	1.8727619854289492	0.5905990294102521	0.0301	1.6271003735505778	0.3517276311190682	0.129	1.400594103689636	0.16744611480262633	0.023	1.4139140459632422	0.013076852606525087	0.2179	1.4526024472343788	0.023412661790010728	0.1804	1.3538524784410781	0.14381222563222704	-0.0119	2.236648411650656	1.1729168889310742	0.0008	2.4751153442290392	1.3541068108084198	0.0655	2.436191828304811	1.211688268295779	0.1076	2.006042898886848	1.2053573736510554	-0.01275	1.7540730652988032	0.9801624369040057	0.0702	1.6337000517153004	0.7445688288316411	0.1076	2.2848479122411165	1.0199858203233907	-0.01275	2.129746952392164	0.7898399614552846	0.0702	2.033528001470805	0.5763576169929729	0.1076
3	0.05	1.8263387592821565	0.6610308314201805	0.0301	1.712607213349284	0.6878303418622825	0.0301	1.4730658064119513	0.4199654432084492	0.129	1.2667965283307105	0.18248822339473023	0.023	1.309416945284106	0.00835453949229978	0.2179	1.2423211875604259	0.04177702065758702	0.1804	1.2139327689325052	0.1719602446655225	-0.0119	1.8730241015824305	0.5910511833210599	0.0301	1.6257830488511773	0.3511396729587782	0.129	1.4002637254985295	0.16735317132687874	0.023	1.4138162925576594	0.01478711374351286	0.2179	1.4520029729793147	0.0256416772835484	0.1804	1.354807684290687	0.14337294793717173	-0.0119	2.237594291163905	1.172249613613465	0.0008	2.475555851848128	1.3544768362647026	0.0655	2.434256069635582	1.2127580259439257	0.1076	2.006758405708567	1.204703873309249	-0.01275	1.75523015674081	0.981407264602888	0.0702	1.6331559627341772	0.7445566660661838	0.1076	2.2853502788553066	1.0199274048170475	-0.01275	2.130212012545692	0.7894267691577492	0.0702	2.0367504322152707	0.5764215958946732	0.1076
4	0.06666666666666667	1.8260882184084024	0.6607483426189672	0.0301	1.712556072054374	0.6886745881065242	0.0301	1.4726562839630994	0.4199744256596868	0.129	1.2669229755543665	0.1822237591841348	0.023	1.3105677754723986	0.006570924657960364	0.2179	1.243165068139145	0.04028600144453139	0.1804	1.21300392391671	0.17154462277700816	-0.0119	1.8732564545619386	0.5914528167039297	0.0301	1.6246404152890126	0.3506259902871205	0.129	1.399954109776343	0.16727328395144175	0.023	1.4137693801849183	0.016170279267386165	0.2179	1.451459370515526	0.027533003265965993	0.1804	1.355667664309012	0.14296831071676003	-0.0119	2.2384606972390033	1.1717034573994125	0.0008	2.47597674855262	1.3547958294036464	0.0655	2.432619032062902	1.2136099292540214	0.1076	2.007473234611278	1.2041395581564476	-0.01275	1.7561607646088508	0.9824164111492264	0.0702	1.6327671903206848	0.7444569824395753	0.1076	2.285753549066879	1.0199387193964353	-0.01275	2.130627748988877	0.7890885781194846	0.0702	2.0395068206740365	0.5765476396208714	0.1076
5	0.08333333333333333	1.825933764130942	0.6605251249866537	0.0301	1.7125959942541564	0.6893689050949724	0.0301	1.4723344071841564	0.4199373090263905	0.129	1.2669208353986678	0.1819556697397945	0.023	1.311494460005403	0.005112079575464405	0.2179	1.2438553003275454	0.039136020138353635	0.1804	1.2121096195297214	0.1711012829663979	-0.0119	1.8734519922632802	0.5917996457019193	0.0301	1.6236577827774945	0.35019323900429017	0.129	1.3996722640547075	0.1672002332260088	0.023	1.4137868181506688	0.017237859230858993	0.2179	1.4509856542991548	0.029099852405984245	0.1804	1.3564365826854752	0.14257631181149413	-0.0119	2.239221255136009	1.1712947974567038	0.0008	2.476368456018409	1.3550846548388502	0.0655	2.431282860187713	1.2142401394094609	0.1076	2.0081773786591675	1.2036664270124398	-0.01275	1.7568924411671907	0.9831861173146065	0.0702	1.6325248139431427	0.744251875994569	0.1076	2.286032310364634	1.0200003931831974	-0.01275	2.130947873169032	0.7888200999369799	0.0702	2.041767220046298	0.5767200869650932	0.1076
